<?xml version="1.0" standalone="no"?>
<!DOCTYPE svg PUBLIC "-//W3C//DTD SVG 20010904//EN"
 "http://www.w3.org/TR/2001/REC-SVG-20010904/DTD/svg10.dtd">
<svg version="1.0" xmlns="http://www.w3.org/2000/svg"
 width="700.000000pt" height="700.000000pt" viewBox="0 0 700.000000 700.000000"
 preserveAspectRatio="xMidYMid meet">
<metadata>
Created by potrace 1.14, written by Peter Selinger 2001-2017
</metadata>
<g transform="translate(0.000000,700.000000) scale(0.100000,-0.100000)"
fill="#000000" stroke="none">
<path d="M3963 5829 c-72 -36 -112 -105 -107 -187 4 -72 29 -108 137 -199 51
-43 94 -80 97 -83 6 -6 63 -54 285 -240 88 -74 171 -145 185 -156 14 -12 120
-102 235 -199 116 -97 216 -182 223 -189 10 -10 6 -25 -19 -76 -32 -67 -74
-157 -114 -245 -12 -27 -37 -81 -55 -120 -75 -161 -102 -218 -126 -273 -15
-31 -48 -103 -75 -160 -88 -185 -107 -279 -84 -411 15 -80 13 -75 113 -281
197 -408 252 -522 252 -524 0 -1 -190 -2 -422 -2 l-423 1 -57 -28 c-174 -85
-211 -302 -76 -438 85 -85 56 -82 823 -83 l670 -1 51 27 c114 60 175 195 143
313 -6 20 -82 182 -170 362 -88 179 -158 327 -157 328 2 2 145 62 318 134 173
73 332 139 353 148 22 10 41 13 46 7 7 -8 89 -228 168 -449 13 -38 31 -83 38
-100 7 -16 25 -66 40 -110 37 -105 47 -125 87 -164 68 -69 184 -98 269 -69 39
13 93 51 126 88 44 49 66 157 43 212 -9 22 -107 297 -225 633 -31 88 -67 189
-80 225 -13 36 -40 112 -61 170 -54 151 -74 180 -151 214 -33 15 -57 18 -110
14 -66 -5 -90 -13 -536 -175 -54 -20 -100 -34 -102 -32 -2 2 19 51 46 108 27
57 49 105 49 106 0 2 28 63 63 137 35 73 83 174 106 225 41 86 46 92 80 98 39
7 341 79 405 96 22 6 49 13 60 15 12 2 49 14 83 26 101 35 127 70 228 303 48
110 93 214 100 230 7 17 37 84 65 150 64 148 69 159 116 265 47 108 52 196 14
249 -47 67 -150 87 -228 47 -28 -14 -92 -82 -92 -97 0 -4 -22 -53 -49 -110
-27 -57 -83 -178 -124 -269 -90 -198 -139 -304 -142 -308 -1 -2 -15 -5 -31 -8
-16 -2 -78 -13 -139 -24 -60 -11 -123 -22 -140 -25 -16 -3 -43 -7 -60 -10 -42
-8 -134 -23 -170 -29 -42 -7 -215 -36 -245 -42 -14 -2 -55 -9 -92 -15 l-67
-12 -53 44 c-29 24 -71 59 -93 79 -22 19 -65 55 -95 80 -54 45 -130 109 -296
251 -49 41 -190 160 -314 265 -271 227 -258 217 -295 249 -77 67 -164 83 -242
44z"/>
<path d="M5410 5697 c-170 -59 -274 -211 -265 -387 4 -85 23 -143 65 -205 31
-45 117 -125 135 -125 6 0 22 -6 37 -14 38 -20 84 -29 153 -31 205 -5 384 165
390 372 4 121 -28 206 -108 287 -87 87 -147 115 -267 122 -60 3 -88 -1 -140
-19z"/>
<path d="M2223 4900 c-37 -8 -96 -51 -118 -83 -41 -63 -34 -160 16 -220 42
-50 82 -69 150 -71 49 0 64 4 101 31 56 40 84 90 87 154 5 118 -117 216 -236
189z"/>
<path d="M2833 4845 c-77 -33 -129 -130 -111 -210 13 -60 51 -110 100 -134
194 -93 369 141 225 301 -48 54 -144 74 -214 43z"/>
<path d="M1593 4781 c-66 -17 -114 -61 -136 -126 -41 -124 47 -247 178 -249
166 -1 256 197 143 313 -55 56 -120 78 -185 62z"/>
<path d="M3434 4631 c-141 -64 -140 -273 0 -339 101 -48 210 -8 257 93 74 161
-93 321 -257 246z"/>
<path d="M1006 4497 c-50 -12 -120 -81 -129 -126 -25 -122 30 -217 140 -241
152 -35 278 114 217 258 -35 85 -135 132 -228 109z"/>
<path d="M3990 4278 c-111 -32 -165 -159 -112 -264 38 -74 98 -108 181 -102
198 15 246 278 66 359 -44 20 -82 22 -135 7z"/>
<path d="M527 4065 c-187 -48 -178 -321 11 -363 57 -13 99 -6 147 27 100 67
115 214 28 291 -55 50 -113 64 -186 45z"/>
<path d="M1959 3686 c0 0 -1 -697 -2 -1548 l0 -1548 -921 -2 -921 -3 0 -108
c0 -60 4 -111 9 -114 5 -3 1062 -6 2350 -6 l2341 0 5 44 c3 24 4 77 2 117 l-4
72 -899 0 -899 0 0 1549 0 1549 -530 0 c-291 0 -530 -1 -531 -2z"/>
<path d="M190 3522 c-42 -15 -92 -56 -109 -89 -41 -82 -32 -159 25 -223 120
-132 340 -38 329 140 -6 97 -84 173 -178 176 -29 1 -59 -1 -67 -4z"/>
</g>
</svg>
